<svg id="Layer_1" data-name="Layer 1" xmlns="http://www.w3.org/2000/svg" viewBox="0 0 600 600"><defs><style>.cls-1{fill:#707883;}</style></defs><path class="cls-1" d="M177.63,34.62A249,249,0,0,1,291.78.27C302-.46,312.15.41,322.27,1.43a246.47,246.47,0,0,1,127.8,52.36c16.69,13.46,31.93,28.92,44.18,46.56a431.1,431.1,0,0,0-90.68,125.34,137.83,137.83,0,0,0-34.23-36.21c-19.71-14.35-43.81-22.81-68.26-23-24-.3-47.79,7.38-67.5,20.92a137.09,137.09,0,0,0-37.74,39.19c-21.77-47.22-52.06-90.7-90.09-126.27,18.81-26.78,43.86-48.95,71.88-65.72Zm-81,131.3c-3.59,4.45-7.07,9.19-8.65,14.76,22.43,27.81,43.44,56.73,63.68,86.17-19-14.88-37.92-29.87-57-44.61a75.39,75.39,0,0,0-16.5,28.89,689.43,689.43,0,0,1,74.18,47.28c19.4,14.36,38.14,29.85,54.16,48a426.6,426.6,0,0,0-11.18-43.56c-17.42-55.66-44.36-109-83.14-152.91a156.31,156.31,0,0,0-15.51,16ZM426,246.83a466.8,466.8,0,0,0-32.49,99.55c15.77-17.83,34.17-33.12,53.24-47.3a689.7,689.7,0,0,1,75.11-47.95,75.39,75.39,0,0,0-16.5-28.89C486.23,237,467.3,252,448.3,266.87c20.23-29.47,41.28-58.39,63.7-86.23-1.62-5.49-5-10.2-8.57-14.6a155.32,155.32,0,0,0-15.6-16.13c-25.54,28.81-45.92,61.93-61.84,96.92ZM259.83,209c-22.42,12.05-39,33.21-48,56.77,13.46,38.1,22.46,77.9,25.6,118.2a306.31,306.31,0,0,1,21.69,32.2C276,445.26,289.21,476.4,300,508.24q7-21,15.76-41.45C328.28,437.62,343,409,362.7,384c1.57-41.05,10.88-81.57,24.8-120.12a115.56,115.56,0,0,0-21.21-34.19c-13.37-14.88-31.35-26-51.13-29.65a83.39,83.39,0,0,0-55.33,8.9ZM71.22,365c22.59,14.56,43.76,31.52,61.93,51.39,20.27,22.15,36.9,48.08,46,76.85,4.51,14.59,7.48,29.87,6.83,45.21,23.5,31.52,59.5,52.11,97.24,61.55A317.18,317.18,0,0,0,264,493.06c-20.81-57.29-57.53-108-102.37-148.92-21.14-19.23-43.93-36.78-68.54-51.37C82.16,315.56,75.78,340.24,71.22,365Zm364.92-18.79c-42.72,39.53-77.85,88-98.56,142.59A317.78,317.78,0,0,0,316.8,600c37.73-9.43,73.72-30,97.23-61.52-.61-14,1.85-27.94,5.66-41.35,7.6-26.33,21.66-50.46,39.09-71.48,19.8-23.89,44-43.87,70-60.64-4.57-24.76-10.95-49.44-21.86-72.23C481.43,307.88,457.89,326.15,436.14,346.21Z"/></svg>