<svg id="Layer_1" data-name="Layer 1" xmlns="http://www.w3.org/2000/svg" viewBox="0 0 600 600"><path d="M431.92,600H170.27c-11-1.09-22.31-1-32.88-3.74-5.54-1.44-9.79-7.86-14.62-12,4.31-4.49,7.89-11.49,13.06-13,12.93-3.71,26.51-5.68,40-7,28.12-2.66,50.87-15.83,70.33-35.1,5.08-5,9.83-12.54,10.61-19.38,4-35.7,7.11-71.53,9.53-107.38.31-4.54-4-11.36-8.09-13.87-15-9.11-31-16.46-46.27-25.18-24.91-14.26-45.14-33.29-55-60.93-12.63-35.31-23.9-71.1-36.7-106.34-3.67-10.11-8.75-21-16.4-28.12-21.08-19.56-21.07-42.64.82-60.3,3.48-2.81,6.47-8.54,6.5-12.93.13-20-.52-40-1.59-59.91C108.27,12,110,8.45,129.47,0H470.33c18.37,8,21.1,12,20.38,30.06-.75,19.15-1.28,38.32-2.43,57.45-.54,9.07,1.59,16.67,8.85,22.27,19.21,14.8,20.54,39.59-.89,57.27-9.63,7.94-14.18,18.4-17.79,30.3-9.73,32-20.93,63.62-31.44,95.42-11.43,34.57-34.6,58.57-66.67,74.77C367.52,374,355,381.15,342.2,387.61c-6.95,3.5-9.87,8.46-9.16,16.27,3.15,34.59,5.22,69.31,9.6,103.73,1.13,8.89,7.61,18.63,14.42,25,19.33,18,42,29.87,69.25,32.08,13.82,1.12,27.61,4.09,41,7.65,3.9,1,9.32,7.28,9,10.62-.43,4.32-5.25,9.33-9.49,11.79s-10,2.14-15.07,2.85C445.17,598.49,438.54,599.2,431.92,600Z"/></svg>