<svg id="Layer_1" data-name="Layer 1" xmlns="http://www.w3.org/2000/svg" viewBox="0 0 600 600"><path d="M0,340.17c.66-.34,1.71-.53,1.93-1.05,22.6-54.7,65.86-93.68,104.12-136.39,23.58-26.33,49.63-50.47,81.79-65.71,59.41-28.15,119.4-55.13,179.6-81.58,19.27-8.47,39.78-14.35,60.07-20.2,8.6-2.48,18.1-2.11,27.21-2.43,2-.07,5.51,2.15,5.87,3.83.44,2.11-1.12,5.29-2.81,7-1.84,1.89-4.78,2.78-7.33,3.88-16.51,7.07-33.07,14.05-49.57,21.14a364,364,0,0,0-89.44,55.12c-40.54,33.7-84,64.29-121.87,100.69-28.52,27.39-50.44,61.69-74.93,93.2-7.84,10.07-7.61,21.17-1.83,32.68,4.42,8.81,7.58,18.25,12.09,29.34,9.41-8.06,18.64-15.41,27.25-23.42,58.58-54.51,118.37-107.53,186.73-149.84,72.17-44.67,150.13-76.07,231.29-99.9,8.63-2.53,18.16-2,27.28-2.86l1.8,4.81c-6.66,5.09-12.81,11.13-20.08,15.12-31.49,17.29-63.73,33.25-94.92,51.06C434,203.32,388.89,238.8,346.74,278.38c-53,49.78-107.42,98.11-160.12,148.22-22.82,21.7-42.86,46.31-64.23,69.54-6.75,7.34-13.29,15-20.71,21.6C87.17,530.66,69.35,525.88,65,506.87c-2.31-10-.13-21.24.77-31.85.94-11.11,3.36-22.11,4.09-33.22,1.38-21.33-8.13-36.58-26.86-46.91C28.32,386.82,14.29,377.65,0,369Z"/><path d="M600,273c-50.77,31.78-100.95,64.54-152.45,95.09-67.07,39.79-122.14,92.11-169.31,153.64-10.12,13.2-22.41,24.87-34.53,36.37-14.12,13.4-28.74,11.81-40.72-3.24-18-22.62-15.44-51.21,7.71-71.59,12.54-11.05,26.59-20.42,40.17-30.26,92-66.7,187-128.46,291.87-173.39,18.08-7.75,38.12-10.93,57.26-16.22Z"/></svg>