<svg id="Layer_1" data-name="Layer 1" xmlns="http://www.w3.org/2000/svg" viewBox="0 0 600 600"><path d="M499.31,0c13.12,12.39,13.36,18.64,0,32.57Q401.61,134.1,303.72,235.42c-14.15,14.67-28.41,29.24-42.09,44.34-4,4.4-6.11,10.47-11,19.1,11,0,18.48,1.16,25.48-.19,47.45-9.11,94.78-18.85,142.18-28.18,16-3.15,21.94.17,27.87,15.05,3.39,8.52,6.16,17.28,9.32,25.9,5.84,16,12.79,20.37,29.84,19.73,10.28-.38,20.75-1.41,30.82,0,11.82,1.68,13.57,8.23,5.08,17.13-13.8,14.46-28,28.51-42.32,42.48q-105,102.72-210.13,205.32c-1.05,1-1.58,2.57-2.36,3.87h-7.2c3.41-8.41,5.66-17.55,10.41-25.13,37.5-59.88,75.55-119.42,113.2-179.21,4.44-7.05,12.74-14.46,6-23.64-6.42-8.77-16.76-7.93-26.45-6.42q-126.6,19.72-253.2,39.45c-11.45,1.77-24.93,4.25-32.42-6.33-7.35-10.36-1.15-22,4.59-32.29q49.8-89.4,99.49-178.88c4.06-7.32,8.1-14.69,11.45-22.35,4.6-10.54,1.75-15.58-9.5-18-2.33-.51-4.77-.48-7.13-.87-14.38-2.4-19.3-10.19-14-23.91,2.85-7.37,7.28-14.17,11.36-21C187.59,77,201.5,52.28,217.25,28.77,224.54,17.9,235.53,9.51,244.85,0Z"/></svg>