<svg id="Layer_1" data-name="Layer 1" xmlns="http://www.w3.org/2000/svg" viewBox="0 0 600 600"><path d="M600,463.57c-15.8,19.88-37.55,30.29-60.75,38.58-63.71,22.75-129.79,31.23-197,33.38-77.12,2.47-154,1.17-229.11-19.15-24.27-6.56-48-15.11-71.68-23.7C33,489.59,25,484.42,17.62,479-1.2,465.08-5.06,449,6.6,428.67c7.12-12.42,15.11-25.06,25.34-34.85,61-58.33,92.46-132.34,115.8-211.29,8.6-29.09,20.37-57.26,31.24-85.63,2.84-7.39,7.23-14.33,11.76-20.88,11.22-16.21,27.14-16.93,38-.34,9.77,15,17.24,31.53,25.19,47.64,18.94,38.34,36.22,77.58,56.9,114.94,9.88,17.85,25.71,32.49,39.37,48.12,7.89,9,16.32,7.29,23-1.87,8.7-12,16.67-24.49,25.3-36.51,6.05-8.42,11.83-17.33,19.28-24.39,13.15-12.47,33.16-12.18,45.45,1.12a112.87,112.87,0,0,1,19,28.87c10.43,22.48,18.14,46.28,29.41,68.3,10.33,20.21,22.92,39.48,36.37,57.79,7.15,9.73,18.7,16.12,27.45,24.83S591.82,423,600,432.29Z"/></svg>