<svg id="Layer_1" data-name="Layer 1" xmlns="http://www.w3.org/2000/svg" viewBox="0 0 600 600"><path d="M298.25,600c-4.72-63.67-13-126.48-45.34-183.29-26.49-46.46-62.78-82.33-112.21-104.25-3.6-1.6-8-7.38-7.7-10.88,4.52-56.15,9.72-112.25,14.84-168.36.13-1.43,1.1-2.78,2.73-6.73,9.2,50,9.61,99,25.59,145.17,13.59-.3,21.08-6.07,22.9-19.5,6.45-47.46,13.38-94.85,19.92-142.3,2.12-15.36,3.57-30.82,6.74-46.28,7.35,63.7,14.7,127.39,21.95,190.32,21,3.35,24.52,2.14,26.89-15.6q9.26-69.41,16.16-139.12c3.33-33,5.08-66.12,7.53-99.18h2.4c2.4,32.24,4.07,64.55,7.37,96.69q7.2,70.22,16.52,140.2c2.43,18.05,3.79,17.86,24.91,18.38,14-61.24,16-124.35,26.58-186.85,1.27,11.08,2.39,22.18,3.83,33.24,6.35,48.68,12.41,97.4,19.39,146,2.55,17.82,8.23,22.35,27.36,24.81Q437.89,201,449.19,129.29l2.6,0c2,20.63,4.13,41.25,5.94,61.9,3.12,35.81,5.88,71.65,9.17,107.44.65,7.08-1.5,11.07-7.92,14.1-90.12,42.43-132.23,118.7-148.65,212.55C306,550,303.82,575.07,300.65,600Z"/></svg>